{
  "accessors": [
    {
      "bufferView": 3,
      "componentType": 5126,
      "count": 18446,
      "max": [
        0.21358877420425415,
        0.50766420364379883,
        0.13594330847263336
      ],
      "min": [
        -0.25979864597320557,
        0.026621256023645401,
        -0.1231875866651535
      ],
      "type": "VEC3"
    },
    {
      "bufferView": 3,
      "byteOffset": 221352,
      "componentType": 5126,
      "count": 18446,
      "max": [
        0.99972438812255859,
        0.9999050498008728,
        0.99997442960739136
      ],
      "min": [
        -0.99986064434051514,
        -0.99949914216995239,
        -0.99977648258209229
      ],
      "type": "VEC3"
    },
    {
      "bufferView": 2,
      "componentType": 5126,
      "count": 18446,
      "max": [
        0.99585443735122681,
        0.99425548315048218
      ],
      "min": [
        0.014125500805675983,
        0.014235956594347954
      ],
      "type": "VEC2"
    },
    {
      "bufferView": 3,
      "byteOffset": 442704,
      "componentType": 5126,
      "count": 18446,
      "max": [
        0,
        0,
        0
      ],
      "min": [
        0,
        0,
        0
      ],
      "type": "VEC3"
    },
    {
      "bufferView": 3,
      "byteOffset": 664056,
      "componentType": 5126,
      "count": 18446,
      "max": [
        0,
        0.025438487529754639,
        0
      ],
      "min": [
        -0.0085180401802062988,
        0,
        -0.0068870782852172852
      ],
      "type": "VEC3"
    },
    {
      "bufferView": 3,
      "byteOffset": 885408,
      "componentType": 5126,
      "count": 18446,
      "max": [
        0.058210179209709167,
        0.010433413088321686,
        0.050223909318447113
      ],
      "min": [
        -0.056879773736000061,
        -0.034902065992355347,
        -0.05749749019742012
      ],
      "type": "VEC3"
    },
    {
      "bufferView": 3,
      "byteOffset": 1106760,
      "componentType": 5126,
      "count": 18446,
      "max": [
        0.73705065250396729,
        0.67871630191802979,
        0.75761175155639648
      ],
      "min": [
        -0.78658002614974976,
        -0.765738844871521,
        -0.79088133573532104
      ],
      "type": "VEC3"
    },
    {
      "bufferView": 3,
      "byteOffset": 1328112,
      "componentType": 5126,
      "count": 18446,
      "max": [
        0,
        0,
        0
      ],
      "min": [
        0,
        0,
        0
      ],
      "type": "VEC3"
    },
    {
      "bufferView": 3,
      "byteOffset": 1549464,
      "componentType": 5126,
      "count": 18446,
      "max": [
        0,
        0.025438487529754639,
        0
      ],
      "min": [
        -0.0085180401802062988,
        0,
        -0.0068870782852172852
      ],
      "type": "VEC3"
    },
    {
      "bufferView": 3,
      "byteOffset": 1770816,
      "componentType": 5126,
      "count": 18446,
      "max": [
        0,
        0,
        0
      ],
      "min": [
        0,
        0,
        0
      ],
      "type": "VEC3"
    },
    {
      "bufferView": 3,
      "byteOffset": 1992168,
      "componentType": 5126,
      "count": 18446,
      "max": [
        0,
        0.025438487529754639,
        0
      ],
      "min": [
        -0.0085180401802062988,
        0,
        -0.0068870782852172852
      ],
      "type": "VEC3"
    },
    {
      "bufferView": 1,
      "componentType": 5125,
      "count": 66264,
      "max": [
        18445
      ],
      "min": [
        0
      ],
      "type": "SCALAR"
    },
    {
      "bufferView": 5,
      "componentType": 5126,
      "count": 9,
      "max": [
        1,
        0.28216639161109924,
        4.8026288368419046e-07,
        0,
        0.33162352442741394,
        1,
        0,
        0,
        5.5362676221193396e-07,
        1.3354897987483128e-07,
        1,
        0,
        0.17232178151607513,
        0.23585671186447144,
        1.7849897915311885e-07,
        1
      ],
      "min": [
        -0.95936566591262817,
        -0.33162352442741394,
        -8.7929129222175106e-07,
        0,
        -0.28216639161109924,
        -0.95936566591262817,
        -3.9297390230785822e-07,
        0,
        -9.5444590897386661e-07,
        -1.2889923084458133e-07,
        1,
        0,
        -0.23117506504058838,
        -0.15210208296775818,
        0,
        1
      ],
      "type": "MAT4"
    },
    {
      "bufferView": 0,
      "componentType": 5123,
      "count": 18446,
      "max": [
        7,
        4,
        4,
        4
      ],
      "min": [
        2,
        4,
        4,
        4
      ],
      "type": "VEC4"
    },
    {
      "bufferView": 4,
      "componentType": 5126,
      "count": 18446,
      "max": [
        1,
        0,
        0,
        0
      ],
      "min": [
        1,
        0,
        0,
        0
      ],
      "type": "VEC4"
    },
    {
      "bufferView": 6,
      "componentType": 5126,
      "count": 79,
      "max": [
        2.5999999046325684
      ],
      "min": [
        0
      ],
      "type": "SCALAR"
    },
    {
      "bufferView": 7,
      "componentType": 5126,
      "count": 79,
      "max": [
        1.0619018077850342,
        1.0619019269943237,
        1.0619018077850342
      ],
      "min": [
        1,
        1.0000001192092896,
        1
      ],
      "type": "VEC3"
    },
    {
      "bufferView": 6,
      "byteOffset": 316,
      "componentType": 5126,
      "count": 79,
      "max": [
        2.5999999046325684
      ],
      "min": [
        0
      ],
      "type": "SCALAR"
    },
    {
      "bufferView": 8,
      "componentType": 5126,
      "count": 79,
      "max": [
        1.5380139473109011e-07,
        -1.9104378168322e-07,
        0.54793936014175415,
        0.8365180492401123
      ],
      "min": [
        1.5380132367681654e-07,
        -1.9104385273749358e-07,
        0.54793936014175415,
        0.8365180492401123
      ],
      "type": "VEC4"
    },
    {
      "bufferView": 6,
      "byteOffset": 632,
      "componentType": 5126,
      "count": 79,
      "max": [
        2.5999999046325684
      ],
      "min": [
        0
      ],
      "type": "SCALAR"
    },
    {
      "bufferView": 7,
      "byteOffset": 948,
      "componentType": 5126,
      "count": 79,
      "max": [
        1.0619019269943237,
        1.0619019269943237,
        1.0619018077850342
      ],
      "min": [
        0.99999994039535522,
        0.99999988079071045,
        1
      ],
      "type": "VEC3"
    },
    {
      "bufferView": 6,
      "byteOffset": 948,
      "componentType": 5126,
      "count": 79,
      "max": [
        2.5999999046325684
      ],
      "min": [
        0
      ],
      "type": "SCALAR"
    },
    {
      "bufferView": 8,
      "byteOffset": 1264,
      "componentType": 5126,
      "count": 79,
      "max": [
        3.9119547068366956e-07,
        1.8946529678487423e-07,
        -0.57036328315734863,
        0.82139253616333008
      ],
      "min": [
        3.9119538541854126e-07,
        1.894651830980365e-07,
        -0.57036334276199341,
        0.82139253616333008
      ],
      "type": "VEC4"
    },
    {
      "bufferView": 6,
      "byteOffset": 1264,
      "componentType": 5126,
      "count": 1,
      "max": [
        0
      ],
      "min": [
        0
      ],
      "type": "SCALAR"
    },
    {
      "bufferView": 6,
      "byteOffset": 1268,
      "componentType": 5126,
      "count": 4,
      "max": [
        0
      ],
      "min": [
        0
      ],
      "type": "SCALAR"
    },
    {
      "bufferView": 6,
      "byteOffset": 1284,
      "componentType": 5126,
      "count": 37,
      "max": [
        1.2000000476837158
      ],
      "min": [
        0
      ],
      "type": "SCALAR"
    },
    {
      "bufferView": 7,
      "byteOffset": 1896,
      "componentType": 5126,
      "count": 37,
      "max": [
        1.0619018077850342,
        1.0619019269943237,
        1.0619018077850342
      ],
      "min": [
        1,
        1.0000001192092896,
        1
      ],
      "type": "VEC3"
    },
    {
      "bufferView": 6,
      "byteOffset": 1432,
      "componentType": 5126,
      "count": 37,
      "max": [
        1.2000000476837158
      ],
      "min": [
        0
      ],
      "type": "SCALAR"
    },
    {
      "bufferView": 8,
      "byteOffset": 2528,
      "componentType": 5126,
      "count": 37,
      "max": [
        1.5380139473109011e-07,
        -1.9104378168322e-07,
        0.54793936014175415,
        0.8365180492401123
      ],
      "min": [
        1.5380133788767125e-07,
        -1.9104382431578415e-07,
        0.54793936014175415,
        0.8365180492401123
      ],
      "type": "VEC4"
    },
    {
      "bufferView": 6,
      "byteOffset": 1580,
      "componentType": 5126,
      "count": 37,
      "max": [
        1.2000000476837158
      ],
      "min": [
        0
      ],
      "type": "SCALAR"
    },
    {
      "bufferView": 7,
      "byteOffset": 2340,
      "componentType": 5126,
      "count": 37,
      "max": [
        1.0619019269943237,
        1.0619019269943237,
        1.0619018077850342
      ],
      "min": [
        0.99999994039535522,
        0.99999988079071045,
        1
      ],
      "type": "VEC3"
    },
    {
      "bufferView": 6,
      "byteOffset": 1728,
      "componentType": 5126,
      "count": 37,
      "max": [
        1.2000000476837158
      ],
      "min": [
        0
      ],
      "type": "SCALAR"
    },
    {
      "bufferView": 8,
      "byteOffset": 3120,
      "componentType": 5126,
      "count": 37,
      "max": [
        3.9119547068366956e-07,
        1.8946529678487423e-07,
        -0.57036328315734863,
        0.82139253616333008
      ],
      "min": [
        3.9119541384025069e-07,
        1.8946521151974594e-07,
        -0.57036334276199341,
        0.82139253616333008
      ],
      "type": "VEC4"
    },
    {
      "bufferView": 6,
      "byteOffset": 1876,
      "componentType": 5126,
      "count": 1,
      "max": [
        0
      ],
      "min": [
        0
      ],
      "type": "SCALAR"
    },
    {
      "bufferView": 6,
      "byteOffset": 1880,
      "componentType": 5126,
      "count": 4,
      "max": [
        0
      ],
      "min": [
        0
      ],
      "type": "SCALAR"
    }
  ],
  "animations": [
    {
      "channels": [
        {
          "sampler": 0,
          "target": {
            "node": 11,
            "path": "scale"
          }
        },
        {
          "sampler": 1,
          "target": {
            "node": 11,
            "path": "rotation"
          }
        },
        {
          "sampler": 2,
          "target": {
            "node": 14,
            "path": "scale"
          }
        },
        {
          "sampler": 3,
          "target": {
            "node": 14,
            "path": "rotation"
          }
        },
        {
          "sampler": 4,
          "target": {
            "node": 17,
            "path": "weights"
          }
        }
      ],
      "name": "good",
      "samplers": [
        {
          "input": 15,
          "interpolation": "LINEAR",
          "output": 16
        },
        {
          "input": 17,
          "interpolation": "LINEAR",
          "output": 18
        },
        {
          "input": 19,
          "interpolation": "LINEAR",
          "output": 20
        },
        {
          "input": 21,
          "interpolation": "LINEAR",
          "output": 22
        },
        {
          "input": 23,
          "interpolation": "LINEAR",
          "output": 24
        }
      ]
    },
    {
      "channels": [
        {
          "sampler": 0,
          "target": {
            "node": 11,
            "path": "scale"
          }
        },
        {
          "sampler": 1,
          "target": {
            "node": 11,
            "path": "rotation"
          }
        },
        {
          "sampler": 2,
          "target": {
            "node": 14,
            "path": "scale"
          }
        },
        {
          "sampler": 3,
          "target": {
            "node": 14,
            "path": "rotation"
          }
        },
        {
          "sampler": 4,
          "target": {
            "node": 17,
            "path": "weights"
          }
        }
      ],
      "name": "bad",
      "samplers": [
        {
          "input": 25,
          "interpolation": "LINEAR",
          "output": 26
        },
        {
          "input": 27,
          "interpolation": "LINEAR",
          "output": 28
        },
        {
          "input": 29,
          "interpolation": "LINEAR",
          "output": 30
        },
        {
          "input": 31,
          "interpolation": "LINEAR",
          "output": 32
        },
        {
          "input": 33,
          "interpolation": "LINEAR",
          "output": 34
        }
      ]
    }
  ],
  "asset": {
    "extras": {
      "author": "Softmind Game Factory (https://sketchfab.com/softmind)",
      "license": "CC-BY-4.0 (http://creativecommons.org/licenses/by/4.0/)",
      "source": "https://sketchfab.com/3d-models/lungsbad-51082cb7406945c0ac6cd985286fb793",
      "title": "Lungs(bad)"
    },
    "generator": "Sketchfab-9.52.0",
    "version": "2.0"
  },
  "bufferViews": [
    {
      "buffer": 0,
      "byteLength": 147568,
      "byteOffset": 0,
      "byteStride": 8,
      "name": "shortBufferViews",
      "target": 34962
    },
    {
      "buffer": 0,
      "byteLength": 265056,
      "byteOffset": 147568,
      "name": "floatBufferViews",
      "target": 34963
    },
    {
      "buffer": 0,
      "byteLength": 147568,
      "byteOffset": 412624,
      "byteStride": 8,
      "name": "floatBufferViews",
      "target": 34962
    },
    {
      "buffer": 0,
      "byteLength": 2213520,
      "byteOffset": 560192,
      "byteStride": 12,
      "name": "floatBufferViews",
      "target": 34962
    },
    {
      "buffer": 0,
      "byteLength": 295136,
      "byteOffset": 2773712,
      "byteStride": 16,
      "name": "floatBufferViews",
      "target": 34962
    },
    {
      "buffer": 0,
      "byteLength": 576,
      "byteOffset": 3068848,
      "byteStride": 64,
      "name": "floatBufferViews"
    },
    {
      "buffer": 0,
      "byteLength": 1896,
      "byteOffset": 3069424,
      "name": "floatBufferViews"
    },
    {
      "buffer": 0,
      "byteLength": 2784,
      "byteOffset": 3071320,
      "byteStride": 12,
      "name": "floatBufferViews"
    },
    {
      "buffer": 0,
      "byteLength": 3712,
      "byteOffset": 3074104,
      "byteStride": 16,
      "name": "floatBufferViews"
    }
  ],
  "buffers": [
    {
      "byteLength": 3077816,
      "uri": "scene.bin"
    }
  ],
  "images": [
    {
      "uri": "textures/Lungs_LowPoly_Mat_baseColor.png"
    },
    {
      "uri": "textures/Lungs_LowPoly_Mat_metallicRoughness.png"
    }
  ],
  "materials": [
    {
      "doubleSided": true,
      "emissiveFactor": [
        0,
        0,
        0
      ],
      "name": "Lungs_LowPoly_Mat",
      "occlusionTexture": {
        "index": 1,
        "strength": 1,
        "texCoord": 0
      },
      "pbrMetallicRoughness": {
        "baseColorFactor": [
          1,
          1,
          1,
          1
        ],
        "baseColorTexture": {
          "index": 0,
          "texCoord": 0
        },
        "metallicFactor": 0,
        "metallicRoughnessTexture": {
          "index": 1,
          "texCoord": 0
        },
        "roughnessFactor": 1
      }
    }
  ],
  "meshes": [
    {
      "name": "0",
      "primitives": [
        {
          "attributes": {
            "JOINTS_0": 13,
            "NORMAL": 1,
            "POSITION": 0,
            "TEXCOORD_0": 2,
            "WEIGHTS_0": 14
          },
          "indices": 11,
          "material": 0,
          "mode": 4,
          "targets": [
            {
              "NORMAL": 4,
              "POSITION": 3
            },
            {
              "NORMAL": 6,
              "POSITION": 5
            },
            {
              "NORMAL": 8,
              "POSITION": 7
            },
            {
              "NORMAL": 10,
              "POSITION": 9
            }
          ]
        }
      ],
      "weights": [
        0,
        0,
        0,
        0
      ]
    }
  ],
  "nodes": [
    {
      "children": [
        1
      ],
      "name": "RootNode (gltf orientation matrix)",
      "rotation": [
        -0.70710678118654746,
        -0,
        -0,
        0.70710678118654757
      ]
    },
    {
      "children": [
        2
      ],
      "name": "RootNode (model correction matrix)"
    },
    {
      "children": [
        3
      ],
      "matrix": [
        1,
        0,
        0,
        0,
        0,
        0,
        1,
        0,
        0,
        -1,
        0,
        0,
        0,
        0,
        0,
        1
      ],
      "name": "8bde232cca3449839fa3b65356aaf5c7.fbx"
    },
    {
      "children": [
        4
      ],
      "name": ""
    },
    {
      "children": [
        5,
        18
      ],
      "name": "RootNode"
    },
    {
      "children": [
        6
      ],
      "name": "Armature",
      "rotation": [
        -0.7071068286895752,
        0,
        0,
        0.70710670948028564
      ]
    },
    {
      "children": [
        7,
        17,
        16
      ],
      "name": ""
    },
    {
      "children": [
        8
      ],
      "name": "_rootJoint"
    },
    {
      "children": [
        9
      ],
      "name": "Bone_00",
      "rotation": [
        0.7071068286895752,
        0,
        0,
        0.70710670948028564
      ]
    },
    {
      "children": [
        10,
        13
      ],
      "name": "Bone.001_01",
      "rotation": [
        6.7635944844823825e-08,
        -1.3834049461536324e-08,
        0.054897461086511612,
        0.99849200248718262
      ],
      "translation": [
        0,
        0.15302443504333496,
        0
      ]
    },
    {
      "children": [
        11
      ],
      "name": "Bone.002_02",
      "rotation": [
        2.5202039566352141e-08,
        -1.1516050335558248e-08,
        0.69394993782043457,
        0.72002333402633667
      ],
      "scale": [
        0.99999994039535522,
        0.99999994039535522,
        1
      ],
      "translation": [
        -9.3132196399281497e-10,
        0.13068555295467377,
        1.4155343563970746e-15
      ]
    },
    {
      "children": [
        12
      ],
      "name": "Bone.003_03",
      "rotation": [
        1.538013805202354e-07,
        -1.9104379589407472e-07,
        0.54793936014175415,
        0.8365180492401123
      ],
      "scale": [
        1,
        1.0000001192092896,
        1
      ],
      "translation": [
        -9.3132230816195261e-09,
        0.13508470356464386,
        2.9976021664879227e-15
      ]
    },
    {
      "name": "Bone.003_end_06",
      "rotation": [
        0,
        0,
        5.0868285714671189e-17,
        1
      ],
      "translation": [
        -2.7755575615628914e-17,
        0.12761363387107849,
        0
      ]
    },
    {
      "children": [
        14
      ],
      "name": "Bone.004_04",
      "rotation": [
        1.6700047922313388e-07,
        1.5227008987039881e-07,
        -0.76802253723144531,
        0.64042282104492188
      ],
      "scale": [
        0.99999994039535522,
        0.99999994039535522,
        1
      ],
      "translation": [
        -9.3132196399281497e-10,
        0.13068555295467377,
        1.4155343563970746e-15
      ]
    },
    {
      "children": [
        15
      ],
      "name": "Bone.005_05",
      "rotation": [
        3.9119544226196012e-07,
        1.894652683631648e-07,
        -0.57036334276199341,
        0.82139253616333008
      ],
      "scale": [
        0.99999994039535522,
        0.99999988079071045,
        1
      ],
      "translation": [
        1.3504167561961822e-08,
        0.11338014155626297,
        -9.1038288019262836e-15
      ]
    },
    {
      "name": "Bone.005_end_07",
      "rotation": [
        -1.3234889800848443e-23,
        2.7057952307340758e-40,
        -2.0444402459597295e-17,
        1
      ],
      "translation": [
        0,
        0.12929427623748779,
        0
      ]
    },
    {
      "matrix": [
        1,
        0,
        0,
        0,
        0,
        -1.6292068488171564e-07,
        1,
        0,
        0,
        -1,
        -1.6292068488171564e-07,
        0,
        -0.023267954587936401,
        0.25281515717506409,
        0.0064747822470963001,
        1
      ],
      "name": ""
    },
    {
      "mesh": 0,
      "name": "",
      "skin": 0
    },
    {
      "name": "Lungs_LowPoly.002",
      "rotation": [
        0.7071068286895752,
        0,
        0,
        0.70710670948028564
      ],
      "translation": [
        -0.023267954587936401,
        0.25281515717506409,
        0.0064747822470963001
      ]
    }
  ],
  "samplers": [
    {
      "magFilter": 9729,
      "minFilter": 9987,
      "wrapS": 10497,
      "wrapT": 10497
    }
  ],
  "scene": 0,
  "scenes": [
    {
      "name": "OSG_Scene",
      "nodes": [
        0
      ]
    }
  ],
  "skins": [
    {
      "inverseBindMatrices": 12,
      "joints": [
        7,
        8,
        9,
        10,
        11,
        12,
        13,
        14,
        15
      ],
      "skeleton": 7
    }
  ],
  "textures": [
    {
      "sampler": 0,
      "source": 0
    },
    {
      "sampler": 0,
      "source": 1
    }
  ]
}

